# xmcd
#
# Track frame offsets: 
#        150
#        26645
#        53456
#        65639
#        91441
#        117896
#        136246
#        159632
#        181835
#        203907
#        224153
#        246892
#        258401
#        275542
#        300778
#
# Disc length: 4379 seconds
#
# Revision: 1
# Processed by: cddbd v1.5.2PL0 Copyright (c) Steve Scherf et al.
# Submitted via: ExactAudioCopy v0.99pb5
#
DISCID=d511190f
DTITLE=TabTwo - Space Case
DYEAR=2000
DGENRE=Jazz
TTITLE0=My Horn
TTITLE1=Baby Boom Suite
TTITLE2=Joggerwalkie
TTITLE3=On And On
TTITLE4=Space Case
TTITLE5=Rong Or Wright
TTITLE6=Bass Days
TTITLE7=Robotalk
TTITLE8=Space House 
TTITLE9=Lieblingslied
TTITLE10=Bedroom Ballet
TTITLE11=Salon Rouge
TTITLE12=Heavy Metal T-Shirt
TTITLE13=Four Miles To Ulm
TTITLE14=On And On (Live)
EXTD=YEAR: 2000
EXTT0=
EXTT1=
EXTT2=
EXTT3=
EXTT4=
EXTT5=
EXTT6=
EXTT7=
EXTT8=
EXTT9=
EXTT10=
EXTT11=
EXTT12=
EXTT13=
EXTT14=
PLAYORDER=
